<svg width="22" height="20" viewBox="0 0 22 20" fill="none" xmlns="http://www.w3.org/2000/svg">
<path d="M14.75 2C14.75 0.89 15.64 0 16.75 0C17.86 0 18.75 0.89 18.75 2C18.75 3.11 17.86 4 16.75 4C15.64 4 14.75 3.11 14.75 2ZM18.75 20V14H21.25L18.71 6.37C18.43 5.55 17.67 5 16.81 5H16.69C15.83 5 15.06 5.55 14.79 6.37L13.93 8.95C15.01 9.55 15.75 10.68 15.75 12V20H18.75ZM11.25 9.5C12.08 9.5 12.75 8.83 12.75 8C12.75 7.17 12.08 6.5 11.25 6.5C10.42 6.5 9.75 7.17 9.75 8C9.75 8.83 10.42 9.5 11.25 9.5ZM4.25 4C5.36 4 6.25 3.11 6.25 2C6.25 0.89 5.36 0 4.25 0C3.14 0 2.25 0.89 2.25 2C2.25 3.11 3.14 4 4.25 4ZM6.25 20V13H7.75V7C7.75 5.9 6.85 5 5.75 5H2.75C1.65 5 0.75 5.9 0.75 7V13H2.25V20H6.25ZM12.75 20V16H13.75V12C13.75 11.18 13.07 10.5 12.25 10.5H10.25C9.43 10.5 8.75 11.18 8.75 12V16H9.75V20H12.75Z" />
</svg>
