<svg viewBox="0 0 30 30" xmlns="http://www.w3.org/2000/svg">
  <path d="M15 7.5C14.6022 7.5 14.2206 7.65804 13.9393 7.93934C13.658 8.22064 13.5 8.60218 13.5 9V15C13.5 15.3978 13.658 15.7794 13.9393 16.0607C14.2206 16.342 14.6022 16.5 15 16.5C15.3978 16.5 15.7794 16.342 16.0607 16.0607C16.342 15.7794 16.5 15.3978 16.5 15V9C16.5 8.60218 16.342 8.22064 16.0607 7.93934C15.7794 7.65804 15.3978 7.5 15 7.5ZM15 19.5C14.7033 19.5 14.4133 19.588 14.1666 19.7528C13.92 19.9176 13.7277 20.1519 13.6142 20.426C13.5006 20.7001 13.4709 21.0017 13.5288 21.2926C13.5867 21.5836 13.7296 21.8509 13.9393 22.0607C14.1491 22.2704 14.4164 22.4133 14.7074 22.4712C14.9983 22.5291 15.2999 22.4994 15.574 22.3858C15.8481 22.2723 16.0824 22.08 16.2472 21.8334C16.412 21.5867 16.5 21.2967 16.5 21C16.5 20.6022 16.342 20.2206 16.0607 19.9393C15.7794 19.658 15.3978 19.5 15 19.5ZM29.565 8.34L21.66 0.435C21.3726 0.160899 20.9921 0.00552523 20.595 0H9.405C9.00785 0.00552523 8.62745 0.160899 8.34 0.435L0.435 8.34C0.160899 8.62745 0.00552523 9.00785 0 9.405V20.595C0.00552523 20.9921 0.160899 21.3726 0.435 21.66L8.34 29.565C8.62745 29.8391 9.00785 29.9945 9.405 30H20.595C20.9921 29.9945 21.3726 29.8391 21.66 29.565L29.565 21.66C29.8391 21.3726 29.9945 20.9921 30 20.595V9.405C29.9945 9.00785 29.8391 8.62745 29.565 8.34ZM27 19.965L19.965 27H10.035L3 19.965V10.035L10.035 3H19.965L27 10.035V19.965Z" fill="#425F80" />
</svg>