<svg width="32" height="32" viewBox="0 0 32 32" fill="none" xmlns="http://www.w3.org/2000/svg">
<path d="M22.2266 17.5067C24.0533 18.7467 25.3333 20.4267 25.3333 22.6667V26.6667H30.6666V22.6667C30.6666 19.76 25.9066 18.04 22.2266 17.5067Z" fill="none"/>
<path d="M20 16C22.9466 16 25.3333 13.6134 25.3333 10.6667C25.3333 7.72004 22.9466 5.33337 20 5.33337C19.3733 5.33337 18.7866 5.46671 18.2266 5.65337C19.3333 7.02671 20 8.77337 20 10.6667C20 12.56 19.3333 14.3067 18.2266 15.68C18.7866 15.8667 19.3733 16 20 16Z" fill="none"/>
<path d="M12 16C14.9466 16 17.3333 13.6134 17.3333 10.6667C17.3333 7.72004 14.9466 5.33337 12 5.33337C9.05331 5.33337 6.66665 7.72004 6.66665 10.6667C6.66665 13.6134 9.05331 16 12 16ZM12 8.00004C13.4666 8.00004 14.6666 9.20004 14.6666 10.6667C14.6666 12.1334 13.4666 13.3334 12 13.3334C10.5333 13.3334 9.33331 12.1334 9.33331 10.6667C9.33331 9.20004 10.5333 8.00004 12 8.00004Z" fill="none"/>
<path d="M12 17.3334C8.43998 17.3334 1.33331 19.12 1.33331 22.6667V26.6667H22.6666V22.6667C22.6666 19.12 15.56 17.3334 12 17.3334ZM20 24H3.99998V22.68C4.26665 21.72 8.39998 20 12 20C15.6 20 19.7333 21.72 20 22.6667V24Z" fill="none"/>
</svg>
