<svg width="32" height="32" viewBox="0 0 32 32" fill="none" xmlns="http://www.w3.org/2000/svg">
<path d="M16 8.00004C17.4666 8.00004 18.6666 9.20004 18.6666 10.6667C18.6666 12.1334 17.4666 13.3334 16 13.3334C14.5333 13.3334 13.3333 12.1334 13.3333 10.6667C13.3333 9.20004 14.5333 8.00004 16 8.00004ZM16 21.3334C19.6 21.3334 23.7333 23.0534 24 24H7.99998C8.30665 23.04 12.4133 21.3334 16 21.3334ZM16 5.33337C13.0533 5.33337 10.6666 7.72004 10.6666 10.6667C10.6666 13.6134 13.0533 16 16 16C18.9466 16 21.3333 13.6134 21.3333 10.6667C21.3333 7.72004 18.9466 5.33337 16 5.33337ZM16 18.6667C12.44 18.6667 5.33331 20.4534 5.33331 24V26.6667H26.6666V24C26.6666 20.4534 19.56 18.6667 16 18.6667Z" fill="white"/>
</svg>
