<svg viewBox="0 0 30 30" xmlns="http://www.w3.org/2000/svg">
  <path d="M19.08 10.185L12.645 16.635L10.17 14.16C10.0355 14.003 9.87006 13.8754 9.68396 13.7854C9.49786 13.6954 9.29516 13.6448 9.08858 13.6368C8.88201 13.6288 8.67601 13.6636 8.48352 13.739C8.29103 13.8145 8.11621 13.9288 7.97003 14.075C7.82385 14.2212 7.70946 14.396 7.63405 14.5885C7.55864 14.781 7.52383 14.987 7.53181 15.1936C7.53979 15.4002 7.59038 15.6029 7.68042 15.789C7.77045 15.975 7.89798 16.1405 8.05501 16.275L11.58 19.815C11.7202 19.954 11.8864 20.064 12.0691 20.1386C12.2519 20.2133 12.4476 20.2511 12.645 20.25C13.0385 20.2483 13.4156 20.0921 13.695 19.815L21.195 12.315C21.3356 12.1756 21.4472 12.0097 21.5233 11.8269C21.5995 11.6441 21.6387 11.448 21.6387 11.25C21.6387 11.052 21.5995 10.8559 21.5233 10.6731C21.4472 10.4903 21.3356 10.3244 21.195 10.185C20.914 9.90562 20.5338 9.74881 20.1375 9.74881C19.7412 9.74881 19.361 9.90562 19.08 10.185ZM15 0C12.0333 0 9.13319 0.879734 6.66645 2.52796C4.19972 4.17618 2.27713 6.51885 1.14181 9.25974C0.00649926 12.0006 -0.290551 15.0166 0.288228 17.9263C0.867006 20.8361 2.29562 23.5088 4.3934 25.6066C6.49119 27.7044 9.16394 29.133 12.0737 29.7118C14.9834 30.2905 17.9994 29.9935 20.7403 28.8582C23.4811 27.7229 25.8238 25.8003 27.472 23.3335C29.1203 20.8668 30 17.9667 30 15C30 13.0302 29.612 11.0796 28.8582 9.25974C28.1044 7.43986 26.9995 5.78628 25.6066 4.3934C24.2137 3.00052 22.5601 1.89563 20.7403 1.14181C18.9204 0.387986 16.9698 0 15 0ZM15 27C12.6266 27 10.3066 26.2962 8.33316 24.9776C6.35977 23.659 4.8217 21.7849 3.91345 19.5922C3.0052 17.3995 2.76756 14.9867 3.23058 12.6589C3.69361 10.3311 4.83649 8.19295 6.51472 6.51472C8.19295 4.83649 10.3312 3.6936 12.6589 3.23058C14.9867 2.76755 17.3995 3.00519 19.5922 3.91344C21.7849 4.8217 23.6591 6.35977 24.9776 8.33315C26.2962 10.3065 27 12.6266 27 15C27 18.1826 25.7357 21.2348 23.4853 23.4853C21.2348 25.7357 18.1826 27 15 27Z" fill="#425F80" />
</svg>